<?xml version="1.0" encoding="utf-8"?>
<!-- Generator: Adobe Illustrator 19.1.0, SVG Export Plug-In . SVG Version: 6.00 Build 0)  -->
<svg version="1.1" id="Layer_1" xmlns="http://www.w3.org/2000/svg" xmlns:xlink="http://www.w3.org/1999/xlink" x="0px" y="0px"
	 width="792px" height="612px" viewBox="0 0 792 612" style="enable-background:new 0 0 792 612;" xml:space="preserve">
<style type="text/css">
	.st0{opacity:0.4;fill:#662D91;}
	.st1{fill:#662D91;}
	.st2{fill:#A97C50;}
	.st3{fill:url(#SVGID_1_);}
	.st4{fill:url(#SVGID_2_);}
	.st5{fill:#C49A6C;}
	.st6{fill:url(#SVGID_3_);}
	.st7{opacity:0.4;fill:#FFFFFF;}
	.st8{fill:url(#SVGID_4_);}
	.st9{fill:url(#SVGID_5_);}
	.st10{fill:#006838;}
	.st11{fill:url(#SVGID_6_);}
	.st12{fill:#FFFFFF;}
	.st13{fill:#8DC63F;}
	.st14{fill:#39B54A;}
	.st15{fill:url(#SVGID_7_);}
	.st16{fill:#009444;}
	.st17{fill:url(#SVGID_8_);}
	.st18{fill:#FFF200;}
	.st19{fill:#808285;}
	.st20{fill:#BE1E2D;}
	.st21{fill:none;stroke:#7F143E;stroke-width:0.54;stroke-linecap:round;stroke-miterlimit:10;}
	.st22{font-family:'ProximaNova-Bold';}
	.st23{font-size:21px;}
	.st24{fill:url(#SVGID_9_);}
	.st25{fill:url(#SVGID_10_);}
</style>
<circle class="st0" cx="273.6" cy="130.2" r="17.8"/>
<g>
	<path class="st1" d="M319,159.7h-2l-7-24.7l-5.9,18.8l-4.5-23.7h-2l5.2,27.7h2.1l4.9-15.9l5.1,17.9H313l-3.1-11l-3.5,11h-5.1
		l-5.9-31.6h5.9l3.4,17.8l5.5-17.8l7.7,27.2l4.8-25.2h-2l-3.2,16.6l-1.1-4.1l2.7-14.5h6L319,159.7z"/>
	<path class="st1" d="M329.3,159.7v-31.6h19.7v5.9h-13.8v9.9h9.9v-2h-7.9v-2h9.9v5.9h-13.8V132h13.8v-2h-15.8v27.7h17.8v-2h-15.8
		v-7.9h2v6H351v5.9H329.3z"/>
	<path class="st1" d="M374.3,159.7l-2.7-7.9h-9.5l-2.7,7.9H353l10.8-31.6h6.3l-2.2,6.7l4.5,13.1h-11.1l3.4-10l1.1,3.2l-1.7,4.8h5.5
		l-3.8-11.1l1.6-4.7h-2.1l-9.5,27.7h2.1l2.7-7.9H373l2.7,7.9h2.1l-7.8-22.9l1.1-3.2l9.6,28.1H374.3z"/>
	<path class="st1" d="M391.4,134v23.7h2v-21.7h1.9v23.7h-5.9V132h13.8v-2h-23.7v2h7.9v2h-9.8v-5.9h27.6v5.9H391.4z"/>
	<path class="st1" d="M428.8,159.7v-11.9h2v9.9h2v-11.9H415v13.8h-5.9v-31.6h5.9v11.9h13.8v-11.9h5.9v13.8h-2V130h-2v11.9H413V130
		h-2v27.7h2v-13.8h21.7v15.8H428.8z"/>
	<path class="st1" d="M442.2,159.7v-31.6H462v5.9h-13.8v9.9h9.9v-2h-7.9v-2h9.9v5.9h-13.8V132H460v-2h-15.8v27.7H462v-2h-15.8v-7.9
		h2v6h15.8v5.9H442.2z"/>
	<path class="st1" d="M487.2,159.7l-7.9-13.8h-3.9v13.8h-5.9v-31.6h12.9c3.8,0,6.9,3.1,6.9,6.8c0,3.7-2.9,7-6.7,7h-9.1V132h7.4
		c2.9,0,4.5,0.7,4.5,3.9H485c0-1.8-1.6-2-3-2h-6.7v6h7.2c2.7,0,4.7-2.4,4.7-5c0-2.6-2.2-4.8-4.8-4.8h-11v27.7h2v-13.8h6.9l7.9,13.8
		h2.3l-7.9-13.8c4.4,0,8.4-3.3,8.4-7.8h0.2c0,3.9-1.4,8-5.5,9.3l8.2,14.4H487.2z"/>
	<path class="st1" d="M340.4,197.7h-2l-7-24.7l-5.9,18.8l-4.5-23.7h-2l5.2,27.7h2.1l4.9-15.9l5.1,17.9h-2.1l-3.1-11l-3.5,11h-5.1
		l-5.9-31.6h5.9l3.4,17.8l5.5-17.8l7.7,27.2L344,168h-2l-3.2,16.6l-1.1-4.1l2.7-14.5h6L340.4,197.7z"/>
	<path class="st1" d="M350.3,197.7V170h3.9v-2h-3.9v-2h5.9v5.9h-3.9v23.7h2v-21.7h2v23.7H350.3z"/>
	<path class="st1" d="M361.5,197.7l11.3-23.7h2.3l-10.5,21.7h16.6v-2h-13.4l10.4-21.7h-15.6v-5.9h19.3v2h-17.3v2h16.8l-10.5,21.7
		h12.3v5.9H361.5z"/>
	<path class="st1" d="M406.6,197.7l-2.7-7.9h-9.5l-2.7,7.9h-6.3l10.8-31.6h6.3l-2.2,6.7l4.5,13.1h-11.1l3.4-10l1.1,3.2l-1.7,4.8h5.5
		l-3.8-11.1l1.6-4.7h-2.1l-9.5,27.7h2.1l2.7-7.9h12.4l2.7,7.9h2.1l-7.8-22.9l1.1-3.2l9.6,28.1H406.6z"/>
	<path class="st1" d="M434.3,197.7l-7.9-13.8h-3.9v13.8h-5.9v-31.6h12.9c3.8,0,6.9,3.1,6.9,6.8c0,3.7-2.9,7-6.7,7h-9.1V170h7.4
		c2.9,0,4.5,0.7,4.5,3.9h-0.2c0-1.8-1.6-2-3-2h-6.7v6h7.2c2.7,0,4.7-2.4,4.7-5c0-2.6-2.2-4.8-4.8-4.8h-11v27.7h2v-13.8h6.9l7.9,13.8
		h2.3l-7.9-13.8c4.4,0,8.4-3.3,8.4-7.8h0.2c0,3.9-1.4,8-5.5,9.3l8.2,14.4H434.3z"/>
	<path class="st1" d="M456.9,197.7h-10.8v-31.6h10.8c8.4,0,12.9,7.2,12.9,14.8c0,6.4-5.1,12.8-11.9,12.8h-7.9V170h6.9
		c6.6,0,8.8,6.2,8.8,11.9h-0.2c0-5-3.3-9.9-8.6-9.9H452v19.8h5.9c5.3,0,9.9-5.8,9.9-10.8c0-6.6-3.8-12.9-11-12.9h-8.8v27.7h8.8
		c8.1,0,14.8-5.4,14.8-13.8h0.2C472,190.3,465.5,197.7,456.9,197.7z"/>
</g>
<path class="st2" d="M464.2,298.2c6.7,2.9,14.5-0.3,17.4-7c2.9-6.7-0.3-14.5-7-17.4"/>
<path class="st2" d="M327.3,300.5c-6.7,2.9-14.5-0.3-17.4-7c-2.9-6.7,1.6-15.1,7-17.4"/>
<linearGradient id="SVGID_1_" gradientUnits="userSpaceOnUse" x1="444.6891" y1="396.8145" x2="482.9372" y2="396.8145">
	<stop  offset="0" style="stop-color:#662D91"/>
	<stop  offset="0.5805" style="stop-color:#00AEEF"/>
	<stop  offset="1" style="stop-color:#662D91;stop-opacity:0.5549"/>
</linearGradient>
<ellipse class="st3" cx="463.8" cy="396.8" rx="19.1" ry="7"/>
<linearGradient id="SVGID_2_" gradientUnits="userSpaceOnUse" x1="315.5456" y1="396.8145" x2="353.7937" y2="396.8145">
	<stop  offset="0" style="stop-color:#662D91"/>
	<stop  offset="0.5805" style="stop-color:#00AEEF"/>
	<stop  offset="1" style="stop-color:#662D91;stop-opacity:0.5549"/>
</linearGradient>
<ellipse class="st4" cx="334.7" cy="396.8" rx="19.1" ry="7"/>
<path class="st5" d="M328.8,299.4c-6.7,2.9-14.5-0.3-17.4-7c-2.9-6.7,0.3-14.5,7-17.4"/>
<path class="st5" d="M463,296.6c6.7,2.9,14.5-0.3,17.4-7c2.9-6.7-0.3-14.5-7-17.4"/>
<radialGradient id="SVGID_3_" cx="395.8667" cy="267.3709" r="78.3709" gradientUnits="userSpaceOnUse">
	<stop  offset="0" style="stop-color:#2484C6"/>
	<stop  offset="0.4642" style="stop-color:#662D91;stop-opacity:0.7933"/>
	<stop  offset="1" style="stop-color:#27AAE1;stop-opacity:0.5549"/>
</radialGradient>
<circle class="st6" cx="395.9" cy="267.4" r="78.4"/>
<ellipse class="st7" cx="353" cy="271.9" rx="16.5" ry="11.9"/>
<ellipse class="st7" cx="358" cy="259.6" rx="8.6" ry="5.6"/>
<ellipse class="st7" cx="346" cy="285.3" rx="10.6" ry="6"/>
<circle class="st7" cx="439.4" cy="236.2" r="13.5"/>
<ellipse class="st7" cx="430.7" cy="226.6" rx="6.6" ry="5.1"/>
<ellipse class="st7" cx="425" cy="220" rx="4.5" ry="3.6"/>
<ellipse class="st7" cx="455.5" cy="243" rx="8.9" ry="7.1"/>
<ellipse class="st7" cx="432.3" cy="271" rx="21.4" ry="18.4"/>
<ellipse class="st7" cx="451.4" cy="285.4" rx="10.3" ry="9"/>
<circle class="st7" cx="380.6" cy="225.8" r="17.8"/>
<ellipse class="st7" cx="388.7" cy="209.8" rx="11.5" ry="9"/>
<ellipse class="st7" cx="361.7" cy="222.9" rx="12.4" ry="4.9"/>
<ellipse class="st7" cx="346.6" cy="251.5" rx="18" ry="14.6"/>
<linearGradient id="SVGID_4_" gradientUnits="userSpaceOnUse" x1="324.2451" y1="408.889" x2="474.9875" y2="408.889">
	<stop  offset="0" style="stop-color:#662D91"/>
	<stop  offset="0.5805" style="stop-color:#00AEEF"/>
	<stop  offset="1" style="stop-color:#662D91;stop-opacity:0.5549"/>
</linearGradient>
<ellipse class="st8" cx="399.6" cy="408.9" rx="75.4" ry="13.8"/>
<linearGradient id="SVGID_5_" gradientUnits="userSpaceOnUse" x1="340.9694" y1="380.9154" x2="460.4385" y2="380.9154">
	<stop  offset="0" style="stop-color:#006838"/>
	<stop  offset="0.5162" style="stop-color:#8DC63F"/>
	<stop  offset="1" style="stop-color:#006838"/>
</linearGradient>
<path class="st9" d="M341,398.2l16-52.6l83.2-2.7l20.2,57.5c0,10.3-26.7,18.6-59.7,18.6s-59.7-8.3-59.7-18.6V398.2z"/>
<path class="st10" d="M350.8,365.8c13.5,5.7,32.3,9.4,50.4,9.4c17.2,0,33.2-3.1,46.3-8.3l-6.7-18.9l-85.2,2.4L350.8,365.8z"/>
<linearGradient id="SVGID_6_" gradientUnits="userSpaceOnUse" x1="323.0044" y1="325.4543" x2="467.3789" y2="325.4543">
	<stop  offset="0" style="stop-color:#006838"/>
	<stop  offset="0.5162" style="stop-color:#8DC63F"/>
	<stop  offset="1" style="stop-color:#006838"/>
</linearGradient>
<path class="st11" d="M467.4,288c-13.4,14.9-40.7,25.2-72.2,25.2c-31.5,0-58.8-10.2-72.2-25.2v49.7c13.4,14.9,40.7,25.2,72.2,25.2
	c31.5,0,58.8-10.2,72.2-25.2V288z"/>
<path class="st10" d="M427,310.1c0,0-12.8,55.7-29.6,55.6c-21.5-0.1-24.6-56.4-24.6-56.4c12,1.5,12-5.3,28-5.2
	C416.9,304.1,419.9,308.9,427,310.1z"/>
<circle class="st5" cx="398.6" cy="296.5" r="27.9"/>
<ellipse class="st5" cx="370.7" cy="292.4" rx="5.7" ry="5.5"/>
<ellipse class="st5" cx="426.5" cy="292.4" rx="5.7" ry="5.5"/>
<ellipse class="st2" cx="387" cy="287.4" rx="6.4" ry="6.8"/>
<ellipse class="st2" cx="413.8" cy="287.4" rx="6.4" ry="6.8"/>
<g>
	<circle class="st12" cx="387.1" cy="288.7" r="5.3"/>
	<g>
		<circle cx="387.9" cy="289.3" r="4"/>
		<circle class="st12" cx="388.9" cy="289.1" r="1.3"/>
	</g>
</g>
<g>
	<circle class="st12" cx="413.5" cy="288.7" r="5.3"/>
	<g>
		<circle cx="412.8" cy="289.3" r="4"/>
		<circle class="st12" cx="411.8" cy="289.1" r="1.3"/>
	</g>
</g>
<polygon class="st13" points="331.1,307.7 338.1,307.7 333.1,314.1 338.3,314.1 330.4,325.1 332.2,316.1 328,316.1 "/>
<polygon class="st14" points="340.8,323.8 347.9,323.8 342.8,330.2 348.1,330.2 340.2,341.2 341.9,332.1 337.8,332.1 "/>
<polygon class="st13" points="357.5,315.2 364.5,315.2 359.5,321.6 364.8,321.6 356.8,332.6 358.6,323.6 354.4,323.6 "/>
<polygon class="st13" points="363.8,335.5 370.8,335.5 365.8,341.9 371.1,341.9 363.1,352.9 364.9,343.8 360.7,343.8 "/>
<polygon class="st13" points="464.6,306.8 457.5,306.8 462.6,313.2 457.3,313.2 465.2,324.2 463.5,315.2 467.7,315.2 "/>
<polygon class="st13" points="454.8,322.9 447.8,322.9 452.8,329.3 447.5,329.3 455.5,340.3 453.7,331.2 457.9,331.2 "/>
<polygon class="st14" points="438.2,314.3 431.1,314.3 436.2,320.7 430.9,320.7 438.8,331.7 437.1,322.7 441.2,322.7 "/>
<polygon class="st13" points="431.9,334.6 424.8,334.6 429.9,341 424.6,341 432.5,352 430.8,342.9 434.9,342.9 "/>
<linearGradient id="SVGID_7_" gradientUnits="userSpaceOnUse" x1="371.6148" y1="326.7447" x2="425.752" y2="326.7447">
	<stop  offset="0" style="stop-color:#A7A9AC"/>
	<stop  offset="0.5162" style="stop-color:#F1F2F2"/>
	<stop  offset="1" style="stop-color:#939598"/>
</linearGradient>
<path class="st15" d="M425.8,303.1c0,0-12.8,54.5-29.6,54.5c-21.5-0.1-24.6-56.4-24.6-56.4c12,1.5,12-5.3,28-5.2
	C415.7,296,420.5,311.1,425.8,303.1z"/>
<polygon class="st13" points="395.6,387.1 402.6,387.1 397.6,393.5 402.9,393.5 394.9,404.5 396.7,395.4 392.5,395.4 "/>
<polygon class="st13" points="363,387.1 370,387.1 365,393.5 370.3,393.5 362.3,404.5 364.1,395.4 359.9,395.4 "/>
<polygon class="st13" points="414.8,379.3 421.8,379.3 416.8,385.7 422.1,385.7 414.1,396.7 415.9,387.6 411.7,387.6 "/>
<polygon class="st14" points="381.4,379.3 388.4,379.3 383.4,385.7 388.7,385.7 380.7,396.7 382.5,387.6 378.3,387.6 "/>
<polygon class="st13" points="433,387.3 440,387.3 435,393.7 440.3,393.7 432.3,404.7 434.1,395.6 429.9,395.6 "/>
<polygon class="st14" points="357.1,371.9 363.8,374 357.1,378.6 362.2,380.2 351.4,388.4 355.7,380.3 351.7,379 "/>
<polygon class="st14" points="440.6,377 446.3,372.8 446,380.9 450.3,377.8 450.5,391.4 446.5,383.1 443.1,385.6 "/>
<polygon class="st13" points="383.3,399.3 390.3,400 384.7,405.9 389.9,406.3 381,416.6 383.6,407.7 379.5,407.4 "/>
<polygon class="st14" points="406.7,400.3 413.5,398.3 410.4,405.8 415.5,404.3 411,417.1 410.1,408 406.1,409.2 "/>
<path class="st16" d="M371.9,290.2c0,0,10.9-59,27.7-59.6c21.5-0.8,25.5,59,25.5,59c-0.3-7.2-8.6-16.4-24.7-15.7
	C384.3,274.4,376.8,281.9,371.9,290.2z"/>
<linearGradient id="SVGID_8_" gradientUnits="userSpaceOnUse" x1="371.9898" y1="259.5893" x2="424.6453" y2="259.5893">
	<stop  offset="0" style="stop-color:#006838"/>
	<stop  offset="0.5162" style="stop-color:#8DC63F"/>
	<stop  offset="1" style="stop-color:#006838"/>
</linearGradient>
<path class="st17" d="M372,289.8c0,0,10.4-59.7,27.2-60.3c21.5-0.8,25.5,59,25.5,59c-0.3-7.2-8.6-16.4-24.7-15.7
	C383.9,273.3,376.9,281.5,372,289.8z"/>
<polygon class="st16" points="394.7,273.4 392.3,279.3 401.5,273.3 "/>
<polygon class="st18" points="395.6,241.2 410,241.2 399.7,254.2 410.5,254.2 394.3,276.7 397.9,258.3 389.3,258.3 "/>
<path class="st2" d="M371.1,295.4c-1.3,0-2.3-1-2.3-2.2s1-2.2,2.3-2.2"/>
<path class="st2" d="M426,295.4c1.3,0,2.3-1,2.3-2.2s-1-2.2-2.3-2.2"/>
<ellipse class="st19" cx="401.1" cy="300.3" rx="9.5" ry="8"/>
<ellipse class="st2" cx="400.3" cy="298.2" rx="9.5" ry="8"/>
<ellipse class="st5" cx="400.5" cy="294.8" rx="5.4" ry="3.1"/>
<path class="st12" d="M393.7,325.7c0,0,5.2,2.8,2.2,9.8s-3.4,4.8-3.6,9.2s4.8,9.6,4.8,9.6s2,1.6,2,0.2c0-1.4-3.8-5.8-1.8-9.8
	s7-3.2,8-9.8s0.6-7.4-1-11.2c-1.6-3.8-0.3-11.4-0.3-11.4s-7.7,2.2-15-6.3c-1.4-1.6-8.7,8.8,0.9,16.1
	C390.9,322.8,393.7,325.7,393.7,325.7z"/>
<path d="M390.3,307.1c0,0,2.9,4.2,8.7,4.5c5.7,0.4,12-4.5,13.1-6.4c2-3.3-8.9,16.4-15.9,16.2c-3.5-0.1-5.8-1.9-5.9-5
	C390.1,313.3,390.3,307.1,390.3,307.1z"/>
<g>
	<path class="st20" d="M400.6,318.1c0,1-2,2.4-4.3,2.4s-4.2-1.3-4.2-2.4s1.9-1.9,4.2-1.9C398.7,316.2,400.6,317.1,400.6,318.1z"/>
	<path class="st21" d="M397,316.4c-1.8,0.6-2.3,1.5-2.3,1.9s0,0.9,0.7,1.7"/>
</g>
<path class="st12" d="M371,300.8c0,0,2.6,25.6,5.8,33.2s3.3,11.3,8.3,17.1c5,5.8,6.4,5.7,8.6,6.1c3.1,0.7-2.9,1.4-7.2-15.2
	s4.6-8.2-3-20c-4.8-7.4-7.6-9.4-5.8-14.8c1.8-5.4,7.2-8.3,7.2-8.3s-2.6,1.3-8.2,1.9C373.2,301.2,371,300.8,371,300.8z"/>
<path class="st12" d="M414.6,301.2c0,0,2.8,3.8,3.9,8.9c0.9,4.2,0.9,6-3.9,11.4c-4.8,5.4-4.6,5-4.8,8.7c-0.2,4.8,2.9,8.7,0.8,12.6
	c-2.1,3.9-4.7,7.2-6.5,8.7c-3.4,2.8-2.4,6.7,2.7-0.5c5.1-7.2,6.3-7.8,10.2-19.2s6.6-20.1,7.5-23.1s0.9-3.2,0.9-3.2l0.3-2
	c0,0-0.3,1-1.8,1.7c-1.4,0.6-3.1,0.1-5-1.4S414.6,301.2,414.6,301.2z"/>
<text transform="matrix(1 0 0 1 259.9697 135.6667)" class="st12 st22 st23">My</text>
<circle class="st0" cx="288.4" cy="144.9" r="6.5"/>
<circle class="st0" cx="290.2" cy="111.8" r="4"/>
<circle class="st0" cx="480.7" cy="169.7" r="6.5"/>
<circle class="st0" cx="489.3" cy="179.3" r="8.2"/>
<path class="st2" d="M379.4,283.4c0,0,2.3-2.7,6.3-3.7s4-1,4-1l-0.7-5.3c0,0-5.8,0.7-7.8,2.5s-3.3,4-3.3,4L379.4,283.4z"/>
<linearGradient id="SVGID_9_" gradientUnits="userSpaceOnUse" x1="377.875" y1="277.375" x2="389.7083" y2="277.375">
	<stop  offset="0" style="stop-color:#A7A9AC"/>
	<stop  offset="0.5162" style="stop-color:#F1F2F2"/>
	<stop  offset="1" style="stop-color:#939598"/>
</linearGradient>
<path class="st24" d="M379.4,282.4c0,0,2.3-2.7,6.3-3.7s4-1,4-1l-0.7-5.3c0,0-5.8,0.7-7.8,2.5s-3.3,4-3.3,4L379.4,282.4z"/>
<path class="st2" d="M420.5,282.6c0,0-2.4-2.6-6.4-3.6c-4-1-4-1-4-1l0.6-5.3c0,0,5.8,0.6,7.9,2.4c2,1.8,3.4,4,3.4,4L420.5,282.6z"/>
<linearGradient id="SVGID_10_" gradientUnits="userSpaceOnUse" x1="401.8693" y1="276.657" x2="413.7026" y2="276.657" gradientTransform="matrix(-1 7.757811e-03 7.757811e-03 1 821.6691 -3.1872)">
	<stop  offset="0" style="stop-color:#A7A9AC"/>
	<stop  offset="0.5162" style="stop-color:#F1F2F2"/>
	<stop  offset="1" style="stop-color:#939598"/>
</linearGradient>
<path class="st25" d="M420.5,281.6c0,0-2.4-2.6-6.4-3.6c-4-1-4-1-4-1l0.6-5.3c0,0,5.8,0.6,7.9,2.4c2,1.8,3.4,4,3.4,4L420.5,281.6z"
	/>
</svg>
