<?xml version="1.0" encoding="utf-8"?>
<!-- Generator: Adobe Illustrator 19.1.0, SVG Export Plug-In . SVG Version: 6.00 Build 0)  -->
<svg version="1.1" id="Layer_1" xmlns="http://www.w3.org/2000/svg" xmlns:xlink="http://www.w3.org/1999/xlink" x="0px" y="0px"
	 width="320px" height="119px" viewBox="0 0 320 119" style="enable-background:new 0 0 320 119;" xml:space="preserve">
<style type="text/css">
	.st0{fill:#2BB673;}
	.st1{fill:#FFFFFF;}
	.st2{font-family:'ProximaNova-Bold';}
	.st3{font-size:27.8009px;}
	.st4{opacity:0.4;fill:#6FBE44;}
	.st5{opacity:0.4;fill:#8CC866;}
</style>
<circle class="st0" cx="23.5" cy="29.6" r="23.5"/>
<g>
	<path class="st0" d="M83.7,68.6H81L71.8,36L64,60.8l-5.9-31.4h-2.6L62.3,66h2.8l6.5-21.1l6.7,23.7h-2.7l-4.1-14.6l-4.6,14.6h-6.7
		l-7.8-41.8h7.8l4.4,23.5l7.3-23.5l10.2,36l6.3-33.4h-2.6l-4.3,22L80.1,46l3.6-19.2h7.9L83.7,68.6z"/>
	<path class="st0" d="M97.4,68.6V26.8h26.1v7.8h-18.3v13.1h13.1v-2.6h-10.5v-2.6h13.1v7.8h-18.3V32h18.3v-2.6H100V66h23.5v-2.6
		h-20.9V53h2.6v7.9h20.9v7.8H97.4z"/>
	<path class="st0" d="M156.8,68.6l-3.6-10.5h-12.5l-3.6,10.5h-8.4L143,26.8h8.3l-2.9,8.8l6,17.3h-14.7l4.5-13.2l1.5,4.3l-2.3,6.4
		h7.3l-5-14.7l2.1-6.2h-2.8L132.3,66h2.8l3.6-10.5h16.5l3.6,10.5h2.8l-10.4-30.4l1.5-4.2l12.6,37.2H156.8z"/>
	<path class="st0" d="M179.5,34.6V66h2.6V37.3h2.5v31.4h-7.8V32h18.3v-2.6h-31.4V32h10.5v2.6h-13v-7.8h36.5v7.8H179.5z"/>
	<path class="st0" d="M229.1,68.6V53h2.6V66h2.6V50.3h-23.5v18.3H203V26.8h7.8v15.7h18.3V26.8h7.8v18.3h-2.6V29.4h-2.6v15.7h-23.5
		V29.4h-2.6V66h2.6V47.7h28.7v20.9H229.1z"/>
	<path class="st0" d="M246.8,68.6V26.8h26.1v7.8h-18.3v13.1h13.1v-2.6h-10.5v-2.6h13.1v7.8H252V32h18.3v-2.6h-20.9V66h23.5v-2.6H252
		V53h2.6v7.9h20.9v7.8H246.8z"/>
	<path class="st0" d="M306.4,68.6l-10.5-18.3h-5.2v18.3h-7.8V26.8h17c5,0,9.1,4.1,9.1,9c0,5-3.9,9.3-8.9,9.3h-12V32h9.8
		c3.9,0,5.9,0.9,5.9,5.2h-0.3c0-2.4-2.1-2.6-3.9-2.6h-8.8v7.9h9.5c3.6,0,6.2-3.2,6.2-6.7c0-3.5-2.9-6.4-6.4-6.4h-14.6V66h2.6V47.7
		h9.1L307.6,66h3.1l-10.5-18.3c5.8,0,11.1-4.3,11.1-10.4h0.3c0,5.2-1.8,10.5-7.2,12.3l10.8,19H306.4z"/>
	<path class="st0" d="M112,119h-2.7l-9.3-32.7l-7.8,24.8l-5.9-31.4h-2.6l6.9,36.6h2.8l6.5-21.1l6.7,23.7H104l-4.1-14.6L95.2,119
		h-6.7l-7.8-41.8h7.8l4.4,23.5l7.3-23.5l10.2,36l6.3-33.4h-2.6l-4.3,22l-1.5-5.4l3.6-19.2h7.9L112,119z"/>
	<path class="st0" d="M125.1,119V82.3h5.2v-2.6h-5.2v-2.6h7.8V85h-5.2v31.4h2.6V87.6h2.6V119H125.1z"/>
	<path class="st0" d="M139.9,119l15-31.4h3L144,116.3h22v-2.6h-17.8L162,85h-20.7v-7.8h25.5v2.6H144v2.6h22.3l-13.9,28.8h16.3v7.8
		H139.9z"/>
	<path class="st0" d="M199.7,119l-3.6-10.5h-12.5L180,119h-8.4l14.2-41.8h8.3l-2.9,8.8l6,17.3h-14.7L187,90l1.5,4.3l-2.3,6.4h7.3
		l-5-14.7l2.1-6.2h-2.8l-12.6,36.6h2.8l3.6-10.5H198l3.6,10.5h2.8L194,86l1.5-4.2l12.6,37.2H199.7z"/>
	<path class="st0" d="M236.3,119l-10.5-18.3h-5.2V119h-7.8V77.1h17c5,0,9.1,4.1,9.1,9c0,5-3.9,9.3-8.9,9.3h-12V82.3h9.8
		c3.9,0,5.9,0.9,5.9,5.2h-0.3c0-2.4-2.1-2.6-3.9-2.6h-8.8v7.9h9.5c3.6,0,6.2-3.2,6.2-6.7c0-3.5-2.9-6.4-6.4-6.4h-14.6v36.6h2.6V98
		h9.1l10.5,18.3h3.1L230.1,98c5.8,0,11.1-4.3,11.1-10.4h0.3c0,5.2-1.8,10.5-7.2,12.3l10.8,19H236.3z"/>
	<path class="st0" d="M266.3,119H252V77.1h14.3c11.1,0,17,9.5,17,19.6c0,8.5-6.8,17-15.7,17h-10.4V82.3h9.1
		c8.7,0,11.7,8.3,11.7,15.7h-0.3c-0.1-6.6-4.3-13.1-11.4-13.1h-6.5v26.2h7.8c7.1,0,13.2-7.6,13.2-14.3c0-8.7-5.1-17.1-14.6-17.1
		h-11.6v36.6h11.7c10.7,0,19.6-7.2,19.6-18.3h0.3C286.2,109.2,277.7,119,266.3,119z"/>
</g>
<text transform="matrix(1 0 0 1 5.529 36.8792)" class="st1 st2 st3">My</text>
<circle class="st4" cx="43.2" cy="49.1" r="8.6"/>
<circle class="st4" cx="45.5" cy="5.3" r="5.3"/>
<circle class="st5" cx="297.7" cy="81.9" r="8.6"/>
<circle class="st5" cx="309.2" cy="94.7" r="10.8"/>
</svg>
