<?xml version="1.0" encoding="utf-8"?>
<!-- Generator: Adobe Illustrator 19.1.0, SVG Export Plug-In . SVG Version: 6.00 Build 0)  -->
<svg version="1.1" id="Layer_1" xmlns="http://www.w3.org/2000/svg" xmlns:xlink="http://www.w3.org/1999/xlink" x="0px" y="0px"
	 width="241.7px" height="89.9px" viewBox="0 0 241.7 89.9" style="enable-background:new 0 0 241.7 89.9;" xml:space="preserve">
<style type="text/css">
	.st0{opacity:0.4;fill:#662D91;}
	.st1{fill:#662D91;}
	.st2{fill:#FFFFFF;}
	.st3{font-family:'ProximaNova-Bold';}
	.st4{font-size:21px;}
</style>
<circle class="st0" cx="17.8" cy="22.3" r="17.8"/>
<g>
	<path class="st1" d="M63.2,51.9h-2l-7-24.7L48.3,46l-4.5-23.7h-2l5.2,27.7h2.1l4.9-15.9l5.1,17.9h-2.1l-3.1-11l-3.5,11h-5.1
		l-5.9-31.6h5.9L48.8,38l5.5-17.8l7.7,27.2l4.8-25.2h-2l-3.2,16.6l-1.1-4.1l2.7-14.5h6L63.2,51.9z"/>
	<path class="st1" d="M73.5,51.9V20.3h19.7v5.9H79.4v9.9h9.9v-2h-7.9v-2h9.9V38H77.5V24.2h13.8v-2H75.5v27.7h17.8v-2H77.5V40h2v6
		h15.8v5.9H73.5z"/>
	<path class="st1" d="M118.5,51.9l-2.7-7.9h-9.5l-2.7,7.9h-6.3L108,20.3h6.3l-2.2,6.7l4.5,13.1h-11.1l3.4-10l1.1,3.2l-1.7,4.8h5.5
		L110,26.9l1.6-4.7h-2.1l-9.5,27.7h2.1l2.7-7.9h12.4l2.7,7.9h2.1l-7.8-22.9l1.1-3.2l9.6,28.1H118.5z"/>
	<path class="st1" d="M135.6,26.2v23.7h2V28.1h1.9v23.7h-5.9V24.2h13.8v-2h-23.7v2h7.9v2h-9.8v-5.9h27.6v5.9H135.6z"/>
	<path class="st1" d="M173,51.9V40h2v9.9h2V38h-17.8v13.8h-5.9V20.3h5.9v11.9H173V20.3h5.9v13.8h-2V22.2h-2v11.9h-17.8V22.2h-2v27.7
		h2V36.1H179v15.8H173z"/>
	<path class="st1" d="M186.4,51.9V20.3h19.7v5.9h-13.8v9.9h9.9v-2h-7.9v-2h9.9V38h-13.8V24.2h13.8v-2h-15.8v27.7h17.8v-2h-15.8V40h2
		v6h15.8v5.9H186.4z"/>
	<path class="st1" d="M231.4,51.9L223.5,38h-3.9v13.8h-5.9V20.3h12.9c3.8,0,6.9,3.1,6.9,6.8c0,3.7-2.9,7-6.7,7h-9.1v-9.9h7.4
		c2.9,0,4.5,0.7,4.5,3.9h-0.2c0-1.8-1.6-2-3-2h-6.7v6h7.2c2.7,0,4.7-2.4,4.7-5c0-2.6-2.2-4.8-4.8-4.8h-11v27.7h2V36.1h6.9l7.9,13.8
		h2.3l-7.9-13.8c4.4,0,8.4-3.3,8.4-7.8h0.2c0,3.9-1.4,8-5.5,9.3l8.2,14.4H231.4z"/>
	<path class="st1" d="M84.6,89.9h-2l-7-24.7L69.7,84l-4.5-23.7h-2l5.2,27.7h2.1l4.9-15.9l5.1,17.9h-2.1l-3.1-11l-3.5,11h-5.1
		l-5.9-31.6h5.9L70.2,76l5.5-17.8l7.7,27.2l4.8-25.2h-2L83,76.8l-1.1-4.1l2.7-14.5h6L84.6,89.9z"/>
	<path class="st1" d="M94.5,89.9V62.2h3.9v-2h-3.9v-2h5.9v5.9h-3.9v23.7h2V66.1h2v23.7H94.5z"/>
	<path class="st1" d="M105.7,89.9L117,66.1h2.3l-10.5,21.7h16.6v-2H112l10.4-21.7h-15.6v-5.9h19.3v2h-17.3v2h16.8L115.1,84h12.3v5.9
		H105.7z"/>
	<path class="st1" d="M150.8,89.9l-2.7-7.9h-9.5l-2.7,7.9h-6.3l10.8-31.6h6.3l-2.2,6.7L149,78h-11.1l3.4-10l1.1,3.2l-1.7,4.8h5.5
		l-3.8-11.1l1.6-4.7h-2.1l-9.5,27.7h2.1l2.7-7.9h12.4l2.7,7.9h2.1l-7.8-22.9l1.1-3.2l9.6,28.1H150.8z"/>
	<path class="st1" d="M178.5,89.9L170.6,76h-3.9v13.8h-5.9V58.3h12.9c3.8,0,6.9,3.1,6.9,6.8c0,3.7-2.9,7-6.7,7h-9.1v-9.9h7.4
		c2.9,0,4.5,0.7,4.5,3.9h-0.2c0-1.8-1.6-2-3-2h-6.7v6h7.2c2.7,0,4.7-2.4,4.7-5c0-2.6-2.2-4.8-4.8-4.8h-11v27.7h2V74.1h6.9l7.9,13.8
		h2.3l-7.9-13.8c4.4,0,8.4-3.3,8.4-7.8h0.2c0,3.9-1.4,8-5.5,9.3l8.2,14.4H178.5z"/>
	<path class="st1" d="M201.2,89.9h-10.8V58.3h10.8c8.4,0,12.9,7.2,12.9,14.8c0,6.4-5.1,12.8-11.9,12.8h-7.9V62.2h6.9
		c6.6,0,8.8,6.2,8.8,11.9h-0.2c0-5-3.3-9.9-8.6-9.9h-4.9V84h5.9c5.3,0,9.9-5.8,9.9-10.8c0-6.6-3.8-12.9-11-12.9h-8.8v27.7h8.8
		c8.1,0,14.8-5.4,14.8-13.8h0.2C216.2,82.5,209.7,89.9,201.2,89.9z"/>
</g>
<text transform="matrix(1 0 0 1 4.1765 27.8575)" class="st2 st3 st4">My</text>
<circle class="st0" cx="32.6" cy="37.1" r="6.5"/>
<circle class="st0" cx="34.4" cy="4" r="4"/>
<circle class="st0" cx="224.9" cy="61.9" r="6.5"/>
<circle class="st0" cx="233.5" cy="71.5" r="8.2"/>
</svg>
