<?xml version="1.0" encoding="utf-8"?>
<!-- Generator: Adobe Illustrator 19.1.0, SVG Export Plug-In . SVG Version: 6.00 Build 0)  -->
<svg version="1.1" id="Layer_1" xmlns="http://www.w3.org/2000/svg" xmlns:xlink="http://www.w3.org/1999/xlink" x="0px" y="0px"
	 viewBox="0 0 406.7 231.8" style="enable-background:new 0 0 406.7 231.8;" xml:space="preserve">
<style type="text/css">
	.st0{fill:#662D91;}
	.st1{clip-path:url(#SVGID_2_);fill:#8DC63F;}
	.st2{opacity:0.39;}
	.st3{fill:#A7A9AC;}
	.st4{opacity:0.34;}
	.st5{fill:#C3D94A;}
	.st6{fill:#95C93D;}
	.st7{fill:url(#SVGID_3_);}
	.st8{fill:#0BAA4B;}
	.st9{fill:#E81E25;}
	.st10{fill:#0C8040;}
	.st11{fill:#FFFFFF;}
	.st12{fill:none;stroke:#BE1E2D;stroke-width:5;stroke-linecap:round;stroke-miterlimit:10;}
</style>
<circle class="st0" cx="206.2" cy="105.5" r="105.5"/>
<g>
	<defs>
		<circle id="SVGID_1_" cx="206.6" cy="105.8" r="105.5"/>
	</defs>
	<clipPath id="SVGID_2_">
		<use xlink:href="#SVGID_1_"  style="overflow:visible;"/>
	</clipPath>
	<path class="st1" d="M101.6,166.3c0,0,11,1.5,25-21.5s14-33,14-40s87.5,15.5,87.5,15.5l-8.5,30c0,0-6,26.5-25.5,49.5
		s-30.5,32-30.5,32s-46.5-18.5-55.5-32.5S101.6,166.3,101.6,166.3z"/>
</g>
<g class="st2">
	<g>
		<path class="st3" d="M40.4,64.7c0,0,17.5,35.1,44.1,55s33,20.3,41.6,20.4c8.6,0.1,14-25.3,14-25.3s-17.6-0.9-34.2-9.8
			S55.8,65.7,54,60.9s-6.6-15.6-10.6-15c-3.9,0.7-9.5,4.1-8.7,8.5S40.4,64.7,40.4,64.7z"/>
		<path class="st3" d="M0,49.2c0,0,21.4,27.4,43.2,30c20.1,2.4,16.4-7.9,21.3-17c4.9-9.1,13.3-37.4,13.3-37.4l-27,13.4L31.2,13.7
			l-4.9,29.2L0,49.2z"/>
	</g>
</g>
<g class="st4">
	<path class="st3" d="M225,112l-12.6,53.7c0,0,52.2-15.2,80.6-24.4s61.5-20.5,66-24.4c4.6-3.9,9.9-8.5,9.9-8.5s3-2.6-2.3-2.7
		c-5.3,0-3.4,2.9-26.8,7.9c-23.4,5-31.5,3.3-54.8,3C261.6,116.2,225,112,225,112z"/>
	<path class="st3" d="M353,77.7c0,0-11.3,17.2-14.1,28.2c-2.8,11.1-0.9,20.1,10.1,22.9c11.1,2.8,27.1-1.4,35.5-4.1
		c8.4-2.7,17.8-6.2,17.8-6.2l-26.8-11.5l16-21.4l-27.8,6.8L353,77.7z"/>
</g>
<g>
	<g>
		<path class="st5" d="M51.8,59.6c0,0,20.9,33.2,49.4,50.4s58.3,16.3,66.9,15.6S152.3,94,152.3,94s-13.8,6.3-31.3-0.9
			C103.5,86,67.2,59,65,54.5s-8.2-14.9-12-13.8s-9,5-7.8,9.4S51.8,59.6,51.8,59.6z"/>
		<path class="st5" d="M10.1,48.2c0,0,24,25.1,46,25.5c20.3,0.3,15.5-9.5,19.5-19s9.5-38.5,9.5-38.5l-25.5,16l-22-22.5l-2,29.5
			L10.1,48.2z"/>
	</g>
	<ellipse class="st6" cx="115.6" cy="103.7" rx="12.3" ry="6.7"/>
</g>
<g>
	<path class="st5" d="M230.6,88.7l-3.6,55c0,0,49-23.5,75.5-37.2s57.3-30.3,61.2-34.9c3.9-4.6,8.3-10,8.3-10s2.6-3.1-2.7-2.2
		c-5.3,0.8-2.9,3.5-25.2,12.2s-30.5,8.4-53.6,11.9C267.4,86.8,230.6,88.7,230.6,88.7z"/>
	<path class="st5" d="M351.3,33.9c0,0-8.4,18.8-9.3,30.1c-0.9,11.4,2.4,20,13.7,20.9c11.4,0.9,26.5-5.8,34.3-9.8
		c7.8-4.1,16.6-9,16.6-9l-28.3-7l12.3-23.7l-26.4,11.2L351.3,33.9z"/>
</g>
<linearGradient id="SVGID_3_" gradientUnits="userSpaceOnUse" x1="136.6286" y1="127.7177" x2="222.3536" y2="127.7177">
	<stop  offset="0" style="stop-color:#8DC63F"/>
	<stop  offset="1" style="stop-color:#006838"/>
</linearGradient>
<path class="st7" d="M136.7,98.5c0,0,0.7,14,15,32.5c18.8,24.3,63,35,63,35s14.5-26.5,3.5-27.2c-6.7-0.4-16.5-2.6-32.1-10.4
	s-43.8-30.7-47-37.2C135.8,84.7,136.7,98.5,136.7,98.5z"/>
<path class="st8" d="M279.2,70c1.2,9.4-30.9,21.2-69.4,26.1s-78.9-0.1-80.1-9.6s35-37.6,73.5-42.5S278,60.6,279.2,70z"/>
<path class="st8" d="M274.2,74c0,21.1-24.6,72.5-63.5,72.5s-51-19-77.5-59c-11.7-17.6,37.1-21.5,76-21.5S274.2,52.9,274.2,74z"/>
<path d="M267.7,84.2c2.9,13.1-15.9,47.3-52.5,52.5c-28.7,4-61.6-23.4-64.5-36.5c-2.9-13.1,42.2,3.3,70.5-3S264.8,71.1,267.7,84.2z"
	/>
<path class="st9" d="M242.9,118.9c-1-6.1-13.7-2.7-28.1-0.5c-14.5,2.3-25.2,2.6-24.2,8.7s13.5,9.3,27.9,7
	C233,131.8,243.9,125,242.9,118.9z"/>
<g>
	<ellipse transform="matrix(0.6347 -0.7728 0.7728 0.6347 9.1157 136.9503)" class="st10" cx="149.4" cy="58.8" rx="24.6" ry="26"/>
	<g>
		<circle class="st11" cx="149.7" cy="60.6" r="20.6"/>
		<g>
			<circle cx="153.3" cy="61.8" r="15.4"/>
			<circle class="st11" cx="155.5" cy="61.5" r="4.9"/>
		</g>
	</g>
</g>
<g>
	
		<ellipse transform="matrix(0.6347 -0.7728 0.7728 0.6347 64.2965 223.2974)" class="st10" cx="268.3" cy="43.6" rx="24.6" ry="26"/>
	<g>
		<circle class="st11" cx="268.6" cy="45.4" r="20.6"/>
		<g>
			<circle cx="265.7" cy="47.6" r="15.4"/>
			<circle class="st11" cx="262.9" cy="49.8" r="4.9"/>
		</g>
	</g>
</g>
<path class="st5" d="M133.2,90c0,0,3.5,8,14.5,9.5s27.5,8,60,4c19.1-2.3,43-10.5,52.5-16.5c9.5-6,14-13,14-13s-29-11.5-55.5-8.5
	c-36.2,4.1-10,15.5-29.5,20S133.2,90,133.2,90z"/>
<ellipse class="st5" cx="205.7" cy="57.8" rx="14" ry="4.2"/>
<ellipse transform="matrix(0.8543 0.5198 -0.5198 0.8543 117.5135 -71.3552)" class="st5" cx="186" cy="173.9" rx="16.3" ry="9.6"/>
<ellipse class="st5" cx="156.7" cy="172.7" rx="11" ry="7.5"/>
<ellipse class="st6" cx="53.1" cy="52.2" rx="15.7" ry="12.3"/>
<ellipse class="st6" cx="361.1" cy="66.8" rx="15.7" ry="12.3"/>
<ellipse class="st6" cx="96.7" cy="90.8" rx="6" ry="4.3"/>
<ellipse transform="matrix(0.9298 -0.368 0.368 0.9298 -14.4638 116.2171)" class="st6" cx="297.5" cy="96" rx="11.1" ry="4.6"/>
<ellipse transform="matrix(0.968 -0.2508 0.2508 0.968 -14.2885 61.2185)" class="st6" cx="233.1" cy="86.7" rx="20" ry="6"/>
<path class="st12" d="M209.7,118.5c0.2,0.2,11.7,3,12.7,11.7"/>
</svg>
