<?xml version="1.0" encoding="utf-8"?>
<!-- Generator: Adobe Illustrator 19.1.0, SVG Export Plug-In . SVG Version: 6.00 Build 0)  -->
<svg version="1.1" id="Layer_1" xmlns="http://www.w3.org/2000/svg" xmlns:xlink="http://www.w3.org/1999/xlink" x="0px" y="0px"
	 viewBox="0 0 601.5 790.5" style="enable-background:new 0 0 601.5 790.5;" xml:space="preserve">
<style type="text/css">
	.st0{fill:#C49A6C;}
	.st1{fill:url(#SVGID_1_);}
	.st2{fill:url(#SVGID_2_);}
	.st3{fill:url(#SVGID_3_);}
	.st4{fill:#006838;}
	.st5{fill:url(#SVGID_4_);}
	.st6{fill:#A97C50;}
	.st7{fill:#FFFFFF;}
	.st8{fill:#8DC63F;}
	.st9{fill:url(#SVGID_5_);}
	.st10{fill:#009444;}
	.st11{fill:url(#SVGID_6_);}
	.st12{fill:#FFF200;}
</style>
<path class="st0" d="M80.2,375c-22.5,9.5-48.5-1-58-23.5s1-48.5,23.5-58"/>
<path class="st0" d="M527.5,365.8c22.5,9.5,48.5-1,58-23.5s-1-48.5-23.5-58"/>
<linearGradient id="SVGID_1_" gradientUnits="userSpaceOnUse" x1="64.9966" y1="735.2136" x2="567.4714" y2="735.2136">
	<stop  offset="0" style="stop-color:#662D91"/>
	<stop  offset="0.5805" style="stop-color:#00AEEF"/>
	<stop  offset="1" style="stop-color:#662D91;stop-opacity:0.5549"/>
</linearGradient>
<ellipse class="st1" cx="316.2" cy="735.2" rx="251.2" ry="41.2"/>
<radialGradient id="SVGID_2_" cx="303.7351" cy="268.2364" r="261.2364" gradientUnits="userSpaceOnUse">
	<stop  offset="0" style="stop-color:#2484C6"/>
	<stop  offset="0.4642" style="stop-color:#662D91;stop-opacity:0.7933"/>
	<stop  offset="1" style="stop-color:#27AAE1;stop-opacity:0.5549"/>
</radialGradient>
<circle class="st2" cx="303.7" cy="268.2" r="261.2"/>
<linearGradient id="SVGID_3_" gradientUnits="userSpaceOnUse" x1="120.7441" y1="646.7181" x2="518.9745" y2="646.7181">
	<stop  offset="0" style="stop-color:#006838"/>
	<stop  offset="0.5162" style="stop-color:#8DC63F"/>
	<stop  offset="1" style="stop-color:#006838"/>
</linearGradient>
<path class="st3" d="M120.7,704.5L174,529l277.5-9L519,711.6c0,34.2-89.1,61.9-199.1,61.9s-199.1-27.7-199.1-61.9V704.5z"/>
<path class="st4" d="M160.4,597.3c45,19.1,100.7,30.3,161.1,30.3c57.3,0,110.5-10.2,154.2-27.5L453.5,537L176,546L160.4,597.3z"/>
<linearGradient id="SVGID_4_" gradientUnits="userSpaceOnUse" x1="60.8608" y1="461.8476" x2="542.1094" y2="461.8476">
	<stop  offset="0" style="stop-color:#006838"/>
	<stop  offset="0.5162" style="stop-color:#8DC63F"/>
	<stop  offset="1" style="stop-color:#006838"/>
</linearGradient>
<path class="st5" d="M542.1,337C497.4,386.9,406.5,421,301.5,421c-105,0-196-34.1-240.6-83.9v165.7c44.7,49.8,135.6,83.9,240.6,83.9
	c105,0,196-34.1,240.6-83.9V337z"/>
<path class="st4" d="M407.4,410.5c0,0-42.8,185.6-98.7,185.4c-71.6-0.3-81.9-188-81.9-188c40,5,39.8-17.7,93.5-17.5
	S384,406.5,407.4,410.5z"/>
<circle class="st0" cx="312.8" cy="365.3" r="93"/>
<ellipse class="st0" cx="219.9" cy="351.6" rx="19" ry="18.2"/>
<ellipse class="st0" cx="405.8" cy="351.6" rx="19" ry="18.2"/>
<ellipse class="st6" cx="274.1" cy="334.9" rx="21.2" ry="22.5"/>
<ellipse class="st6" cx="363.6" cy="334.9" rx="21.2" ry="22.5"/>
<g>
	<circle class="st7" cx="274.6" cy="339.2" r="17.8"/>
	<g>
		<circle cx="277.1" cy="341.2" r="13.3"/>
		<circle class="st7" cx="280.4" cy="340.6" r="4.2"/>
	</g>
</g>
<g>
	<circle class="st7" cx="362.6" cy="339.2" r="17.8"/>
	<g>
		<circle cx="360.1" cy="341.2" r="13.3"/>
		<circle class="st7" cx="356.9" cy="340.6" r="4.2"/>
	</g>
</g>
<polygon class="st8" points="87.8,402.7 111.3,402.7 94.4,424 112,424 85.6,460.7 91.5,430.6 77.5,430.6 "/>
<polygon class="st8" points="120.3,456.2 143.8,456.2 126.9,477.5 144.5,477.5 118.1,514.2 124,484.1 110,484.1 "/>
<polygon class="st8" points="175.8,427.7 199.3,427.7 182.4,449 200,449 173.6,485.7 179.5,455.6 165.5,455.6 "/>
<polygon class="st8" points="196.8,495.2 220.3,495.2 203.4,516.5 221,516.5 194.6,553.2 200.5,523.1 186.5,523.1 "/>
<polygon class="st8" points="532.8,399.7 509.3,399.7 526.1,421 508.5,421 535,457.7 529.1,427.6 543,427.6 "/>
<polygon class="st8" points="500.2,453.2 476.7,453.2 493.6,474.5 476,474.5 502.4,511.2 496.6,481.1 510.5,481.1 "/>
<polygon class="st8" points="444.7,424.7 421.2,424.7 438.1,446 420.5,446 446.9,482.7 441.1,452.6 455,452.6 "/>
<polygon class="st8" points="423.7,492.2 400.2,492.2 417.1,513.5 399.5,513.5 425.9,550.2 420.1,520.1 434,520.1 "/>
<linearGradient id="SVGID_5_" gradientUnits="userSpaceOnUse" x1="222.8958" y1="466.1488" x2="403.3528" y2="466.1488">
	<stop  offset="0" style="stop-color:#A7A9AC"/>
	<stop  offset="0.5162" style="stop-color:#F1F2F2"/>
	<stop  offset="1" style="stop-color:#939598"/>
</linearGradient>
<path class="st9" d="M403.4,387.4c0,0-42.7,181.8-98.6,181.5c-71.6-0.3-81.9-188-81.9-188c40,5,39.8-17.7,93.5-17.5
	S385.8,414.1,403.4,387.4z"/>
<ellipse class="st6" cx="318.6" cy="371" rx="31.7" ry="26.8"/>
<ellipse class="st0" cx="319.2" cy="359.7" rx="18" ry="10.3"/>
<path d="M285.2,400.8c0,0,9.7,13.8,28.9,15.1c19.2,1.2,39.9-14.9,43.7-21.3c6.6-11-29.8,54.7-53.1,54c-11.8-0.4-19.3-6.3-19.7-16.7
	C284.6,421.3,285.2,400.8,285.2,400.8z"/>
<polygon class="st8" points="302.8,667.2 326.3,667.2 309.4,688.5 327,688.5 300.6,725.2 306.5,695.1 292.5,695.1 "/>
<polygon class="st8" points="194.1,667.2 217.6,667.2 200.7,688.5 218.4,688.5 191.9,725.2 197.8,695.1 183.9,695.1 "/>
<polygon class="st8" points="366.8,641.2 390.3,641.2 373.4,662.5 391,662.5 364.6,699.2 370.5,669.1 356.5,669.1 "/>
<polygon class="st8" points="255.5,641.2 279,641.2 262.1,662.5 279.7,662.5 253.3,699.2 259.1,669.1 245.2,669.1 "/>
<polygon class="st8" points="427.5,667.9 451,667.9 434.1,689.2 451.7,689.2 425.3,725.9 431.1,695.8 417.2,695.8 "/>
<polygon class="st8" points="174.5,616.8 197,623.6 174.7,639.1 191.5,644.2 155.6,671.6 169.9,644.6 156.6,640.5 "/>
<polygon class="st8" points="452.9,633.7 471.7,619.7 470.9,646.8 485,636.3 485.7,681.5 472.5,653.9 461.3,662.2 "/>
<polygon class="st8" points="261.8,708.1 285.2,710.2 266.5,729.9 284,731.5 254.3,765.6 262.9,736.2 249,734.9 "/>
<polygon class="st8" points="339.8,711.2 362.4,704.6 352.2,729.7 369.1,724.8 354.1,767.4 351.2,736.9 337.8,740.8 "/>
<path class="st10" d="M223.8,344.2c0,0,36.5-196.6,92.3-198.8c71.6-2.8,84.9,196.5,84.9,196.5c-0.9-24-28.6-54.6-82.2-52.5
	C265.2,291.6,240.2,316.7,223.8,344.2z"/>
<linearGradient id="SVGID_6_" gradientUnits="userSpaceOnUse" x1="224.1458" y1="242.2977" x2="399.664" y2="242.2977">
	<stop  offset="0" style="stop-color:#006838"/>
	<stop  offset="0.5162" style="stop-color:#8DC63F"/>
	<stop  offset="1" style="stop-color:#006838"/>
</linearGradient>
<path class="st11" d="M224.1,342.9c0,0,34.8-199,90.6-201.1c71.6-2.8,84.9,196.5,84.9,196.5c-0.9-24-28.6-54.6-82.2-52.5
	S240.6,315.5,224.1,342.9z"/>
<polygon class="st12" points="303,181 351,181 316.5,224.5 352.5,224.5 298.5,299.5 310.5,238 282,238 "/>
</svg>
